<?xml version="1.0" standalone="no"?>
<!DOCTYPE svg PUBLIC "-//W3C//DTD SVG 20010904//EN"
 "http://www.w3.org/TR/2001/REC-SVG-20010904/DTD/svg10.dtd">
<svg version="1.0" xmlns="http://www.w3.org/2000/svg"
 width="1772.000000pt" height="1772.000000pt" viewBox="0 0 1772.000000 1772.000000"
 preserveAspectRatio="xMidYMid meet">
<metadata>
Created by potrace 1.11, written by Peter Selinger 2001-2013
</metadata>
<g transform="translate(0.000000,1772.000000) scale(0.100000,-0.100000)"
fill="#000000" stroke="none">
<path d="M8645 14083 c-272 -13 -586 -75 -814 -160 l-93 -35 -62 27 c-141 62
-283 105 -447 137 l-114 22 -2124 3 c-1436 2 -2142 0 -2180 -7 -216 -40 -369
-253 -332 -462 15 -86 60 -175 117 -232 59 -58 -60 0 1539 -751 688 -323 1410
-663 1605 -755 l355 -167 -2 -54 c-7 -227 -5 -448 6 -529 l12 -96 -45 -95
c-76 -159 -106 -329 -87 -486 13 -109 40 -202 88 -301 19 -41 32 -76 29 -80
-12 -12 -213 -14 -267 -3 -76 16 -180 67 -263 130 -38 29 -75 50 -83 47 -29
-11 -26 -40 11 -113 106 -206 324 -306 528 -243 72 22 161 81 201 134 26 34
27 38 27 178 0 146 8 248 19 248 3 0 30 -52 60 -115 l54 -115 -36 -54 c-93
-139 -157 -306 -188 -486 -14 -84 -11 -295 5 -391 19 -103 64 -235 117 -341
22 -43 39 -79 39 -82 0 -10 -134 -26 -217 -26 -185 0 -359 70 -541 216 -35 29
-58 41 -70 37 -44 -17 -42 -51 10 -154 74 -148 216 -270 378 -325 86 -29 264
-26 350 7 86 33 168 88 230 156 l50 55 0 176 c0 197 17 345 55 500 30 118 96
289 109 282 4 -3 47 -44 93 -92 l85 -87 -55 -108 c-64 -125 -108 -249 -139
-389 -32 -147 -32 -445 1 -594 40 -187 112 -366 205 -509 l46 -72 -25 -9 c-63
-24 -198 -44 -300 -44 -222 -1 -399 59 -622 210 -93 63 -99 66 -123 52 -36
-20 -36 -56 0 -130 97 -192 265 -341 467 -410 269 -93 580 -7 762 212 78 93
75 82 61 269 -15 197 -9 483 15 621 30 176 98 409 152 513 l14 28 62 -36 c258
-149 548 -265 812 -326 l101 -23 114 -296 c63 -162 123 -303 133 -312 20 -21
56 -23 81 -5 16 12 16 18 1 101 -38 219 -7 324 116 391 102 55 219 35 303 -51
66 -68 80 -160 50 -333 -9 -53 -12 -97 -7 -102 16 -16 68 -20 86 -5 9 7 69
145 132 306 63 161 118 296 122 300 4 3 55 17 113 29 237 52 532 167 759 296
63 36 115 64 116 63 34 -39 118 -294 149 -450 48 -237 57 -525 25 -781 l-11
-88 32 -49 c54 -84 171 -185 274 -235 206 -102 414 -100 633 5 82 40 118 65
187 131 124 117 226 278 212 335 -4 14 -17 30 -30 35 -21 10 -37 3 -140 -66
-131 -87 -258 -146 -385 -177 -122 -31 -310 -30 -438 1 -51 13 -95 26 -97 30
-2 3 11 31 31 61 50 78 137 261 167 353 126 384 82 847 -113 1187 l-38 66 93
98 92 97 20 -43 c96 -219 152 -543 138 -802 l-7 -120 78 -76 c126 -124 267
-179 431 -167 213 14 406 148 507 349 49 98 52 123 19 145 -20 13 -25 11 -65
-21 -196 -157 -366 -225 -558 -226 -97 0 -211 17 -211 32 0 6 13 34 29 62 40
71 79 173 109 285 22 85 25 117 26 271 1 183 -5 227 -51 375 -29 92 -93 226
-145 303 l-36 53 57 119 c48 101 57 115 65 97 4 -12 11 -105 14 -207 l5 -184
45 -48 c133 -142 361 -168 530 -59 130 85 250 280 186 305 -19 7 -23 5 -91
-51 -64 -51 -178 -107 -254 -123 -56 -12 -244 -11 -265 2 -7 5 3 34 27 84 66
135 84 217 84 389 0 180 -15 249 -84 390 l-47 95 14 103 c13 101 11 506 -3
552 -5 18 44 43 477 247 815 383 2562 1204 2768 1301 158 75 205 102 252 145
238 221 138 615 -177 696 -53 14 -292 16 -2145 16 -1298 0 -2120 -4 -2179 -10
-202 -21 -389 -72 -580 -157 -96 -43 -106 -45 -135 -34 -95 38 -336 113 -436
135 -267 58 -546 82 -815 69z"/>
<path d="M8938 6959 c-359 -44 -634 -221 -792 -510 -61 -111 -79 -199 -79
-379 0 -180 17 -263 80 -383 43 -82 164 -211 253 -269 192 -125 442 -215 844
-303 397 -87 603 -200 691 -379 59 -121 56 -250 -10 -383 -85 -172 -291 -279
-587 -303 -260 -21 -514 23 -728 127 -85 42 -107 58 -206 159 -65 65 -123 116
-138 120 -109 27 -229 -77 -231 -201 -1 -112 119 -275 277 -376 257 -165 586
-247 943 -236 471 14 862 219 1016 532 54 110 79 216 86 360 7 156 -12 256
-72 380 -86 178 -220 302 -440 410 -152 74 -242 104 -540 180 -614 156 -797
267 -834 504 -39 247 113 447 398 523 107 29 398 37 527 14 168 -29 314 -104
457 -234 48 -44 103 -86 123 -92 77 -26 167 18 209 103 30 61 31 100 6 168
-81 211 -378 390 -756 455 -110 19 -392 26 -497 13z"/>
<path d="M12223 6960 c-664 -55 -1249 -510 -1456 -1131 -164 -492 -92 -1003
204 -1449 92 -139 300 -344 449 -443 197 -130 398 -214 624 -259 160 -33 463
-32 616 1 222 47 435 135 606 249 174 117 217 170 216 268 -1 94 -57 167 -149
194 -70 21 -123 6 -211 -59 -163 -121 -291 -184 -459 -227 -294 -74 -592 -44
-858 88 -310 154 -542 419 -649 739 -75 226 -75 533 0 758 57 171 154 330 284
465 181 189 373 300 627 363 96 24 127 27 283 28 111 0 201 -5 245 -14 158
-31 325 -101 445 -185 36 -25 83 -55 105 -66 77 -38 168 -20 231 45 84 87 80
210 -11 294 -91 83 -279 190 -441 250 -117 43 -291 79 -438 91 -71 5 -138 9
-150 9 -12 -1 -63 -5 -113 -9z"/>
<path d="M5950 6943 c-597 -59 -1103 -406 -1368 -938 -364 -731 -117 -1624
578 -2089 546 -366 1273 -374 1817 -21 607 395 886 1116 706 1820 -120 469
-447 866 -883 1074 -262 125 -574 182 -850 154z m392 -434 c491 -98 876 -495
963 -993 19 -114 19 -328 0 -442 -90 -517 -493 -919 -1012 -1009 -109 -19
-306 -19 -415 0 -211 37 -390 116 -563 250 -520 404 -639 1113 -278 1658 95
144 281 315 437 402 256 143 576 193 868 134z"/>
<path d="M1100 6899 c-44 -18 -90 -59 -113 -102 l-22 -42 0 -1450 0 -1450 28
-47 c53 -90 162 -129 253 -89 60 27 80 45 108 96 21 40 21 41 26 1078 l5 1038
493 -824 c271 -453 505 -835 520 -849 49 -46 89 -61 157 -56 117 7 82 -41 640
895 l500 840 5 -1047 5 -1048 30 -44 c37 -52 97 -87 162 -94 91 -10 186 59
213 155 14 52 14 2837 -1 2895 -37 150 -215 204 -335 103 -20 -17 -252 -401
-630 -1041 -329 -558 -602 -1012 -606 -1008 -3 4 -273 457 -598 1007 -326 550
-604 1013 -619 1029 -52 56 -153 82 -221 55z"/>
<path d="M15205 6881 c-22 -10 -54 -33 -70 -52 -41 -46 -1332 -2848 -1345
-2919 -17 -89 11 -155 80 -190 93 -47 172 -17 332 129 125 113 339 275 468
356 266 164 549 258 865 286 136 12 298 3 456 -27 l85 -16 119 -266 c157 -353
177 -393 219 -430 91 -79 231 -62 301 37 27 39 30 50 30 119 l0 77 -643 1415
c-694 1529 -660 1461 -750 1488 -55 17 -100 15 -147 -7z m391 -1367 c157 -346
288 -633 290 -639 3 -7 -59 -9 -178 -7 -380 7 -727 -76 -1099 -263 -49 -25
-89 -43 -89 -41 0 3 160 346 356 763 196 417 368 783 381 813 l25 55 14 -26
c7 -15 142 -310 300 -655z"/>
</g>
</svg>
